<mxfile host="65bd71144e">
    <diagram id="kIGZFXLA4RyHsZCO7DPf" name="Page-1">
        <mxGraphModel dx="1632" dy="814" grid="1" gridSize="10" guides="1" tooltips="1" connect="1" arrows="1" fold="1" page="1" pageScale="1" pageWidth="850" pageHeight="1100" math="0" shadow="0">
            <root>
                <mxCell id="0"/>
                <mxCell id="1" parent="0"/>
                <mxCell id="2" value="" style="rounded=0;whiteSpace=wrap;html=1;fillColor=none;" parent="1" vertex="1">
                    <mxGeometry x="90" y="120" width="630" height="620" as="geometry"/>
                </mxCell>
                <mxCell id="3" value="" style="rounded=0;whiteSpace=wrap;html=1;fillColor=none;" parent="1" vertex="1">
                    <mxGeometry x="90" y="120" width="630" height="60" as="geometry"/>
                </mxCell>
                <mxCell id="4" value="&lt;b&gt;&lt;font style=&quot;font-size: 16px;&quot;&gt;Anvil Web&lt;/font&gt;&lt;/b&gt;" style="text;html=1;align=center;verticalAlign=middle;resizable=0;points=[];autosize=1;strokeColor=none;fillColor=none;" parent="1" vertex="1">
                    <mxGeometry x="110" y="135" width="100" height="30" as="geometry"/>
                </mxCell>
                <mxCell id="5" value="&lt;font style=&quot;font-size: 16px;&quot;&gt;&lt;u&gt;Controller&lt;/u&gt; Tests&lt;/font&gt;" style="text;html=1;align=center;verticalAlign=middle;resizable=0;points=[];autosize=1;strokeColor=none;fillColor=none;" parent="1" vertex="1">
                    <mxGeometry x="495" y="135" width="130" height="30" as="geometry"/>
                </mxCell>
                <mxCell id="6" value="" style="rounded=0;whiteSpace=wrap;html=1;fontSize=16;fillColor=none;" parent="1" vertex="1">
                    <mxGeometry x="140" y="330" width="520" height="120" as="geometry"/>
                </mxCell>
                <mxCell id="7" value="Start Run" style="rounded=0;whiteSpace=wrap;html=1;fontSize=16;fillColor=none;" parent="1" vertex="1">
                    <mxGeometry x="140" y="230" width="120" height="40" as="geometry"/>
                </mxCell>
                <mxCell id="8" value="Worker 1" style="text;html=1;strokeColor=none;fillColor=none;align=center;verticalAlign=middle;whiteSpace=wrap;rounded=0;fontSize=16;" parent="1" vertex="1">
                    <mxGeometry x="150" y="340" width="100" height="30" as="geometry"/>
                </mxCell>
                <mxCell id="10" value="Status" style="text;html=1;strokeColor=none;fillColor=none;align=center;verticalAlign=middle;whiteSpace=wrap;rounded=0;fontSize=16;" parent="1" vertex="1">
                    <mxGeometry x="190" y="375" width="60" height="30" as="geometry"/>
                </mxCell>
                <mxCell id="11" value="Start new run" style="rounded=0;whiteSpace=wrap;html=1;fontSize=16;fillColor=none;" parent="1" vertex="1">
                    <mxGeometry x="165" y="410" width="110" height="30" as="geometry"/>
                </mxCell>
                <mxCell id="12" value="Stop" style="rounded=0;whiteSpace=wrap;html=1;fontSize=16;fillColor=none;" parent="1" vertex="1">
                    <mxGeometry x="290" y="410" width="110" height="30" as="geometry"/>
                </mxCell>
                <mxCell id="13" value="Pause" style="rounded=0;whiteSpace=wrap;html=1;fontSize=16;fillColor=none;" parent="1" vertex="1">
                    <mxGeometry x="420" y="410" width="100" height="30" as="geometry"/>
                </mxCell>
                <mxCell id="14" value="click to show results" style="text;html=1;strokeColor=none;fillColor=none;align=center;verticalAlign=middle;whiteSpace=wrap;rounded=0;fontSize=16;fontStyle=2" parent="1" vertex="1">
                    <mxGeometry x="440" y="360" width="210" height="30" as="geometry"/>
                </mxCell>
            </root>
        </mxGraphModel>
    </diagram>
</mxfile>